<svg xmlns="http://www.w3.org/2000/svg" viewBox="0 0 93.94 61.68"><defs><style>.cls-1{fill:#fff;}</style></defs><g id="Слой_2" data-name="Слой 2"><g id="Слой_1-2" data-name="Слой 1"><path class="cls-1" d="M34.06,53.46a9.16,9.16,0,0,1,1-3.76L58.73,1.37c.38-.78.77-1.64,1.85-1.29s.88,1.27.68,2.12q-6.1,26.46-12.21,52.92a7.52,7.52,0,0,1-8.31,6A7.64,7.64,0,0,1,34.06,53.46Z"/><path class="cls-1" d="M89.12,36.13c.09.56-.36.67-.75.83l-13.64,5.5c-.83.34-1.22.13-1.51-.73a34.33,34.33,0,0,0-8.29-13.51c-.65-.66-.51-1.09,0-1.72q3.76-4.48,7.46-9c.61-.76,1.08-.95,1.92-.27A51.1,51.1,0,0,1,88.78,35.39Z"/><path class="cls-1" d="M83.76,61.67c-2.86,0-5.71,0-8.56,0-.78,0-1.27.06-1-1.07a34.06,34.06,0,0,0,.35-13.53c-.17-1,.11-1.42,1.07-1.68q7-1.93,14-4c1.09-.32,1.59-.15,1.94,1a56.65,56.65,0,0,1,2.36,18c0,1.1-.48,1.3-1.44,1.28-2.91,0-5.82,0-8.72,0Z"/><path class="cls-1" d="M41.11,13.59c0,1.23.79,3,0,4.07s-2.68.34-4.08.5a35.54,35.54,0,0,0-13.19,4.13c-.95.52-1.45.41-2-.51-.94-1.53-2-3-3-4.45-.55-.76-.5-1.22.31-1.79A45.47,45.47,0,0,1,39.59,7.43c.89-.13,1.12.27,1.17,1C40.85,10.09,41,11.72,41.11,13.59Z"/><path class="cls-1" d="M19.41,24.66c-.1.51-.45.68-.73.9a39.59,39.59,0,0,0-11.38,14c-.36.74-.75,1-1.59.68-4.18-1.79-3.89-.61-2.21-4.87A45.18,45.18,0,0,1,13.57,20.18c.85-.86,1.41-1.06,2.22,0,.94,1.26,2,2.41,3.06,3.62A8.09,8.09,0,0,1,19.41,24.66Z"/><path class="cls-1" d="M62,10.21a44,44,0,0,1,6.53,3.07c.75.42.78.84.34,1.51q-3.21,4.82-6.35,9.66c-.43.66-.79.75-1.53.32-1.54-.89-2.13-1.86-1.57-3.77C60.41,17.48,61.11,13.85,62,10.21Z"/><path class="cls-1" d="M52.87,7.71,47.84,18c-.61,1.26-1.57.25-2.35.32s-.81-.49-.78-1.1q.23-4.59.4-9.18c0-.76.42-1,1.12-1A44.65,44.65,0,0,1,52.87,7.71Z"/><path class="cls-1" d="M0,52.76a50.44,50.44,0,0,1,.8-8.5c.18-1,.47-1.44,1.66-1.11,2.86.79,2.84.71,2.08,3.53A44.43,44.43,0,0,0,3,60.3c0,.61.29,1.32-.76,1.37-.89,0-1.48-.08-1.62-1.18A58.88,58.88,0,0,1,0,52.76Z"/></g></g></svg>