<?xml version="1.0" encoding="utf-8"?>
<!-- Generator: Adobe Illustrator 24.1.2, SVG Export Plug-In . SVG Version: 6.00 Build 0)  -->
<svg version="1.1" id="Слой_1" xmlns="http://www.w3.org/2000/svg" xmlns:xlink="http://www.w3.org/1999/xlink" x="0px" y="0px"
	 viewBox="0 0 82 82" style="enable-background:new 0 0 82 82;" xml:space="preserve">
<style type="text/css">
	.st0{fill:#030303;}
	.st1{opacity:0.1;}
	.st2{fill:none;stroke:#CFE741;stroke-width:5;stroke-miterlimit:10;}
	.st3{fill:#1E1E1E;}
	.st4{opacity:8.000000e-02;fill:#FFFFFF;}
	.st5{fill:#CFE741;}
	.st6{opacity:0.2;fill:none;stroke:#FFFFFF;stroke-width:5;stroke-miterlimit:10;}
	.st7{fill:none;stroke:#CFE741;stroke-width:2;stroke-miterlimit:10;}
	.st8{fill:#FFFFFF;}
	.st9{fill:none;stroke:#FFFFFF;stroke-width:6.1474;stroke-miterlimit:10;}
	.st10{fill:none;stroke:#FFFFFF;stroke-width:7;stroke-miterlimit:10;}
	.st11{fill:none;stroke:#CFE741;stroke-width:3.3456;stroke-miterlimit:10;}
	.st12{fill:none;stroke:#FFFFFF;stroke-width:7.6;stroke-miterlimit:10;}
	.st13{fill:#D0E741;}
	.st14{fill:none;stroke:#FFFFFF;stroke-width:7;stroke-linecap:round;stroke-miterlimit:10;}
	.st15{fill:none;stroke:#FFFFFF;stroke-width:6.6393;stroke-miterlimit:10;}
</style>
<g class="st1">
	<path class="st2" d="M-1682.9,700.7h794.6c254.5,0,460.8-206.3,460.8-460.8v-487.7c0-254.5,206.3-460.8,460.8-460.8h338"/>
</g>
<g>
	<path class="st8" d="M82.5,59H75c0-12.6-7-24.1-18.2-29.8c-1.2-0.6-2.5-1.2-3.8-1.7c-0.6-0.2-1.3-0.4-1.9-0.6
		c-3.1-0.9-6.3-1.4-9.6-1.4C23,25.5,7.9,40.5,7.9,59H0.5c0-22.6,18.4-41,41-41c4,0,8,0.6,11.7,1.7c0.8,0.2,1.6,0.5,2.4,0.8
		c1.6,0.6,3.1,1.3,4.6,2C73.9,29.6,82.5,43.6,82.5,59z"/>
	<path class="st8" d="M36.4,56.3l22.8-40.1L43.5,59.6c-0.7,2-3,3.1-5,2.4c-2-0.7-3.1-3-2.4-5C36.2,56.7,36.3,56.5,36.4,56.3z"/>
	<path class="st8" d="M36.4,56.3l22.8-40.1L43.5,59.6c-0.7,2-3,3.1-5,2.4c-2-0.7-3.1-3-2.4-5C36.2,56.7,36.3,56.5,36.4,56.3z"/>
</g>
</svg>
