<svg xmlns="http://www.w3.org/2000/svg" viewBox="0 0 81.58 81.68"><defs><style>.cls-1{fill:#fff;}</style></defs><g id="Слой_2" data-name="Слой 2"><g id="Слой_1-2" data-name="Слой 1"><path class="cls-1" d="M40.82,0C17.92.37,0,18.09,0,40.85A40.39,40.39,0,0,0,40.62,81.68a40.42,40.42,0,0,0,41-41C81.5,18,63.58.44,40.82,0Zm-.48,73.51A32.61,32.61,0,0,1,40.91,8.3c18-.1,32.35,14.72,32.51,32.42A32.81,32.81,0,0,1,40.34,73.51Z"/><path class="cls-1" d="M60.32,52.21C55.05,49.13,49.83,46,44.53,42.94a2.89,2.89,0,0,1-1.7-3c.08-6,0-12.06.05-18.1,0-1-.24-1.44-1.31-1.36a25.42,25.42,0,0,1-3.38,0c-1.17-.08-1.6.29-1.57,1.53.08,3.6,0,7.2,0,10.8s0,7.29,0,10.94a1.85,1.85,0,0,0,1.08,1.85c2.3,1.29,4.55,2.67,6.82,4Q50.78,53.41,57,57.18c.74.45,1.23.44,1.69-.37a30.55,30.55,0,0,1,2-3.06C61.18,53,61.06,52.65,60.32,52.21Z"/></g></g></svg>